<?xml version="1.0" encoding="UTF-8"?>
<svg width="700pt" height="700pt" version="1.1" viewBox="0 0 700 700" xmlns="http://www.w3.org/2000/svg">
 <g>
  <path d="m192.5 315c-4.375-0.011719-8.5898-1.6602-11.809-4.6211-3.2188-2.9648-5.2109-7.0273-5.5859-11.387-0.37109-4.3594 0.90234-8.6992 3.5703-12.168l122.5-157.5c3.9492-4.5117 9.9336-6.6836 15.859-5.7617 5.9219 0.92188 10.961 4.8125 13.355 10.312 2.3906 5.4961 1.8008 11.836-1.5664 16.801l-122.5 157.5c-3.3047 4.293-8.4062 6.8125-13.824 6.8242z"/>
  <path d="m243.6 362.07c-6.1758 0.13672-12.035 2.7578-16.254 7.2695-4.2148 4.5117-6.4336 10.535-6.1484 16.707 0.41016 5.832 3.0859 11.273 7.4531 15.16 4.3711 3.8867 10.082 5.9102 15.926 5.6406 5.8398-0.26953 11.344-2.8125 15.336-7.0859 3.9883-4.2695 6.1523-9.9336 6.0234-15.777-0.125-5.8477-2.5352-11.41-6.707-15.504-4.1758-4.0938-9.7852-6.3945-15.629-6.4102z"/>
  <path d="m325.85 363.65h-7.6992l-0.003906 19.602h8.5742c3.8516 0 12.949 0 12.949-9.9766 0.003906-9.9727-9.2734-9.625-13.82-9.625z"/>
  <path d="m595 280h-78.926l-117.25-150.68c-0.53906-0.57031-1.125-1.0977-1.75-1.5742 3.4961-7.0781 5.3516-14.855 5.4258-22.75 0-13.926-5.5312-27.277-15.375-37.125-9.8477-9.8438-23.199-15.375-37.125-15.375s-27.277 5.5312-37.125 15.375c-9.8438 9.8477-15.375 23.199-15.375 37.125s5.5312 27.277 15.375 37.125c9.8477 9.8438 23.199 15.375 37.125 15.375 7.7695-0.011719 15.434-1.8086 22.398-5.25l100.1 127.75h-367.5c-4.6406 0-9.0938 1.8438-12.375 5.125s-5.125 7.7344-5.125 12.375v175c0 4.6406 1.8438 9.0938 5.125 12.375s7.7344 5.125 12.375 5.125h490c4.6406 0 9.0938-1.8438 12.375-5.125s5.125-7.7344 5.125-12.375v-175c0-4.6406-1.8438-9.0938-5.125-12.375s-7.7344-5.125-12.375-5.125zm-245-157.5c-4.6406 0-9.0938-1.8438-12.375-5.125s-5.125-7.7344-5.125-12.375 1.8438-9.0938 5.125-12.375 7.7344-5.125 12.375-5.125 9.0938 1.8438 12.375 5.125 5.125 7.7344 5.125 12.375-1.8438 9.0938-5.125 12.375-7.7344 5.125-12.375 5.125zm-106.57 306.43c-11.246 0.23438-22.121-4.0352-30.203-11.855-8.0859-7.8203-12.711-18.547-12.848-29.797-0.10156-5.9805 0.96875-11.926 3.1484-17.5 3.8867-9.7969 11.215-17.84 20.613-22.613 9.4023-4.7734 20.219-5.9453 30.422-3.3008 10.203 2.6484 19.09 8.9297 24.984 17.668 5.8945 8.7383 8.3945 19.332 7.0273 29.785-1.3711 10.449-6.5117 20.043-14.457 26.969-7.9453 6.9297-18.148 10.715-28.688 10.645zm107.8-35c-6.4414 6.0859-15.137 9.1953-23.977 8.5742h-9.1016v25.727h-20.648v-82.953h26.949c8.8477-1.1719 17.812 0.94531 25.199 5.9531 6.3164 5.4844 9.8477 13.512 9.625 21.875 0.26172 7.9023-2.6328 15.586-8.0469 21.348zm62.824-30.801h-25.551v12.773h24.852v17.5h-24.852v14.176h25.551v18.375h-45.5v-80.676h45.5zm82.074 63.699h-17.5l-31.148-49.875v49.699h-20.477v-81.375h17.5l31.676 51.625-0.875-51.273h20.125z"/>
 </g>
</svg>
